<svg width="126" height="27" viewBox="0 0 126 27" fill="none" xmlns="http://www.w3.org/2000/svg">
<path d="M9.112 26.224C7.46933 26.224 5.99733 25.9573 4.696 25.424C3.39467 24.8907 2.34933 24.1013 1.56 23.056C0.792 22.0107 0.386667 20.752 0.344 19.28H6.168C6.25333 20.112 6.54133 20.752 7.032 21.2C7.52267 21.6267 8.16267 21.84 8.952 21.84C9.76267 21.84 10.4027 21.6587 10.872 21.296C11.3413 20.912 11.576 20.3893 11.576 19.728C11.576 19.1733 11.384 18.7147 11 18.352C10.6373 17.9893 10.1787 17.6907 9.624 17.456C9.09067 17.2213 8.32267 16.9547 7.32 16.656C5.86933 16.208 4.68533 15.76 3.768 15.312C2.85067 14.864 2.06133 14.2027 1.4 13.328C0.738667 12.4533 0.408 11.312 0.408 9.904C0.408 7.81333 1.16533 6.18133 2.68 5.008C4.19467 3.81333 6.168 3.216 8.6 3.216C11.0747 3.216 13.0693 3.81333 14.584 5.008C16.0987 6.18133 16.9093 7.824 17.016 9.936H11.096C11.0533 9.21067 10.7867 8.64533 10.296 8.24C9.80533 7.81333 9.176 7.6 8.408 7.6C7.74667 7.6 7.21333 7.78133 6.808 8.144C6.40267 8.48533 6.2 8.98667 6.2 9.648C6.2 10.3733 6.54133 10.9387 7.224 11.344C7.90667 11.7493 8.97333 12.1867 10.424 12.656C11.8747 13.1467 13.048 13.616 13.944 14.064C14.8613 14.512 15.6507 15.1627 16.312 16.016C16.9733 16.8693 17.304 17.968 17.304 19.312C17.304 20.592 16.9733 21.7547 16.312 22.8C15.672 23.8453 14.7333 24.6773 13.496 25.296C12.2587 25.9147 10.7973 26.224 9.112 26.224ZM32.8635 26L27.4235 18.512V26H21.9515V2.32H27.4235V15.408L32.8315 8.144H39.5835L32.1595 17.104L39.6475 26H32.8635ZM45.7648 6.288C44.8048 6.288 44.0154 6.01067 43.3968 5.456C42.7994 4.88 42.5008 4.176 42.5008 3.344C42.5008 2.49067 42.7994 1.78667 43.3968 1.232C44.0154 0.655998 44.8048 0.367998 45.7648 0.367998C46.7034 0.367998 47.4714 0.655998 48.0688 1.232C48.6874 1.78667 48.9968 2.49067 48.9968 3.344C48.9968 4.176 48.6874 4.88 48.0688 5.456C47.4714 6.01067 46.7034 6.288 45.7648 6.288ZM48.4848 8.144V26H43.0128V8.144H48.4848ZM59.2023 2.32V26H53.7303V2.32H59.2023ZM69.9197 2.32V26H64.4477V2.32H69.9197ZM77.9173 6.288C76.9573 6.288 76.1679 6.01067 75.5493 5.456C74.9519 4.88 74.6533 4.176 74.6533 3.344C74.6533 2.49067 74.9519 1.78667 75.5493 1.232C76.1679 0.655998 76.9573 0.367998 77.9173 0.367998C78.8559 0.367998 79.6239 0.655998 80.2213 1.232C80.8399 1.78667 81.1493 2.49067 81.1493 3.344C81.1493 4.176 80.8399 4.88 80.2213 5.456C79.6239 6.01067 78.8559 6.288 77.9173 6.288ZM80.6373 8.144V26H75.1653V8.144H80.6373ZM96.7628 7.952C98.8534 7.952 100.517 8.63467 101.755 10C103.013 11.344 103.643 13.2 103.643 15.568V26H98.2028V16.304C98.2028 15.1093 97.8934 14.1813 97.2748 13.52C96.6561 12.8587 95.8241 12.528 94.7788 12.528C93.7334 12.528 92.9014 12.8587 92.2828 13.52C91.6641 14.1813 91.3548 15.1093 91.3548 16.304V26H85.8828V8.144H91.3548V10.512C91.9094 9.72267 92.6561 9.104 93.5948 8.656C94.5334 8.18667 95.5894 7.952 96.7628 7.952ZM125.557 16.784C125.557 17.296 125.525 17.8293 125.461 18.384H113.077C113.163 19.4933 113.515 20.3467 114.133 20.944C114.773 21.52 115.552 21.808 116.469 21.808C117.835 21.808 118.784 21.232 119.317 20.08H125.141C124.843 21.2533 124.299 22.3093 123.509 23.248C122.741 24.1867 121.771 24.9227 120.597 25.456C119.424 25.9893 118.112 26.256 116.661 26.256C114.912 26.256 113.355 25.8827 111.989 25.136C110.624 24.3893 109.557 23.3227 108.789 21.936C108.021 20.5493 107.637 18.928 107.637 17.072C107.637 15.216 108.011 13.5947 108.757 12.208C109.525 10.8213 110.592 9.75467 111.957 9.008C113.323 8.26133 114.891 7.888 116.661 7.888C118.389 7.888 119.925 8.25067 121.269 8.976C122.613 9.70133 123.659 10.736 124.405 12.08C125.173 13.424 125.557 14.992 125.557 16.784ZM119.957 15.344C119.957 14.4053 119.637 13.6587 118.997 13.104C118.357 12.5493 117.557 12.272 116.597 12.272C115.68 12.272 114.901 12.5387 114.261 13.072C113.643 13.6053 113.259 14.3627 113.109 15.344H119.957Z" fill="#113C49"/>
</svg>
